<svg xmlns="http://www.w3.org/2000/svg" xmlns:xlink="http://www.w3.org/1999/xlink" viewBox="0 0 312.44 59.79"><defs><style>.cls-1{fill:url(#Degradado_sin_nombre_18);}.cls-2{fill:#1b0082;}</style><linearGradient id="Degradado_sin_nombre_18" x1="-0.02" y1="0.02" x2="89.2" y2="89.24" gradientUnits="userSpaceOnUse"><stop offset="0.3" stop-color="#1b0082"></stop><stop offset="0.83" stop-color="#fc004d"></stop></linearGradient></defs><g id="Capa_2" data-name="Capa 2"><g id="Capa_1-2" data-name="Capa 1"><path class="cls-1" d="M111.45,52.09,93.82,34.45,81.38,46.9,94,59.54H118.9ZM25,0H0L29.87,29.77.1,59.54H25L54.75,29.77ZM59.36,0h-25L64.26,29.77,34.49,59.54H59.36L89.13,29.77Z"></path><path class="cls-2" d="M155.61,42.35H143.92a.36.36,0,0,0-.36.36v1.93a.37.37,0,0,0,.36.37h4.43V59.43a.37.37,0,0,0,.37.36h2.09a.37.37,0,0,0,.37-.36V45h4.43a.37.37,0,0,0,.36-.37V42.71A.36.36,0,0,0,155.61,42.35Z"></path><path class="cls-2" d="M171.1,42.35h-10a.36.36,0,0,0-.36.36V59.43a.36.36,0,0,0,.36.36h10a.36.36,0,0,0,.36-.36V57.52a.36.36,0,0,0-.36-.36h-7.56V52.39h6.83a.37.37,0,0,0,.37-.36V50.12a.38.38,0,0,0-.37-.37h-6.83V45h7.56a.36.36,0,0,0,.36-.36V42.71A.36.36,0,0,0,171.1,42.35Z"></path><path class="cls-2" d="M182.65,45.05c2.35,0,3.57,1.14,3.85,3.57a.37.37,0,0,0,.36.32H189a.36.36,0,0,0,.36-.39c-.31-3.94-2.75-6.2-6.69-6.2-4.32,0-6.8,2.67-6.8,7.32v2.8c0,4.65,2.48,7.32,6.8,7.32,3.89,0,6.31-2.19,6.65-6a.39.39,0,0,0-.1-.28.38.38,0,0,0-.27-.12h-2.12a.37.37,0,0,0-.36.33c-.22,2.27-1.46,3.38-3.8,3.38-2.71,0-4-1.47-4-4.62v-2.8C178.68,46.52,179.94,45.05,182.65,45.05Z"></path><path class="cls-2" d="M207,42.35h-2.1a.36.36,0,0,0-.36.36v7h-7.08v-7a.36.36,0,0,0-.36-.36H195a.36.36,0,0,0-.37.36V59.43a.36.36,0,0,0,.37.36h2.09a.36.36,0,0,0,.36-.36v-7h7.08v7a.36.36,0,0,0,.36.36H207a.36.36,0,0,0,.36-.36V42.71A.36.36,0,0,0,207,42.35Z"></path><path class="cls-2" d="M226.31,42.35h-2.05a.36.36,0,0,0-.36.36V57l-5.61-14.45a.36.36,0,0,0-.34-.23H214a.36.36,0,0,0-.36.36V59.43a.36.36,0,0,0,.36.36h2.05a.37.37,0,0,0,.37-.36V45.25l5.47,14.31a.35.35,0,0,0,.33.23h4.08a.36.36,0,0,0,.36-.36V42.71A.36.36,0,0,0,226.31,42.35Z"></path><path class="cls-2" d="M238.79,42.35c-4.31,0-6.79,2.67-6.79,7.32v2.8c0,4.65,2.48,7.32,6.79,7.32s6.79-2.67,6.79-7.32v-2.8C245.58,45,243.11,42.35,238.79,42.35Zm-4,7.32c0-3.15,1.26-4.62,4-4.62s4,1.47,4,4.62v2.8c0,3.15-1.26,4.62-4,4.62s-4-1.47-4-4.62Z"></path><path class="cls-2" d="M260.7,57.09h-7V42.71a.36.36,0,0,0-.36-.36h-2.1a.36.36,0,0,0-.36.36V59.43a.36.36,0,0,0,.36.36h9.43a.36.36,0,0,0,.37-.36v-2A.36.36,0,0,0,260.7,57.09Z"></path><path class="cls-2" d="M271,42.35c-4.32,0-6.8,2.67-6.8,7.32v2.8c0,4.65,2.48,7.32,6.8,7.32s6.79-2.67,6.79-7.32v-2.8C277.77,45,275.29,42.35,271,42.35Zm4,10.12c0,3.15-1.26,4.62-4,4.62s-4-1.47-4-4.62v-2.8c0-3.15,1.26-4.62,4-4.62s4,1.47,4,4.62Z"></path><path class="cls-2" d="M295.33,50.18h-6.4a.36.36,0,0,0-.36.36V52.4a.37.37,0,0,0,.36.37h3.94c0,.18,0,.24,0,.42-.19,2.72-1.38,3.9-3.9,3.9-2.7,0-4-1.47-4-4.62v-2.8c0-3.15,1.26-4.62,4-4.62,2.35,0,3.58,1.14,3.86,3.57a.35.35,0,0,0,.36.32h2.12a.32.32,0,0,0,.26-.12.36.36,0,0,0,.1-.27c-.31-3.94-2.75-6.2-6.7-6.2-4.31,0-6.79,2.67-6.79,7.32v2.8c0,4.65,2.48,7.32,6.79,7.32,4,0,6.43-2.4,6.72-6.64,0-.28,0-.45,0-.75V50.54A.37.37,0,0,0,295.33,50.18Z"></path><path class="cls-2" d="M312.39,42.52h0a.37.37,0,0,0-.31-.17h-2.24a.35.35,0,0,0-.32.2l-4,8-4.06-8.05a.36.36,0,0,0-.32-.19h-2.28a.37.37,0,0,0-.32.17.41.41,0,0,0,0,.36l4.81,9.27a.34.34,0,0,0,.31.19h.43v7.09a.37.37,0,0,0,.37.36h2.09a.37.37,0,0,0,.37-.36V52.34h.42a.39.39,0,0,0,.33-.19l4.77-9.27A.36.36,0,0,0,312.39,42.52Z"></path><path class="cls-2" d="M184.09,10.44V21.78A10.43,10.43,0,0,1,176,32a11,11,0,0,1-1.3.22,9.65,9.65,0,0,1-1.08,0H143.81V12.43h8.05V24.17h21.07a3.1,3.1,0,0,0,3.1-3.1V11.15a3.09,3.09,0,0,0-3.1-3.09H143.81V0h29.84A10.34,10.34,0,0,1,176,.27,10.45,10.45,0,0,1,184.09,10.44Z"></path><path class="cls-2" d="M226.46,8.06H210.34V32.22h-8.05V8.06H186.18V0h40.28Z"></path></g></g></svg>